# xmcd
#
# Track frame offsets:
#	150
#	23365
#	35527
#	45836
#	60141
#	74031
#	86144
#	105695
#	121981
#	136701
#	151479
#	163444
#	172748
#	185133
#	196715
#	207995
#	222148
#	237057
#	245347
#	258772
#	274779
#	287589
#
# Disc length: 4053 seconds
#
# Revision: 0
# Processed by: cddbd v1.5.2PL0 Copyright (c) Steve Scherf et al.
# Submitted via: EZCDAudioConverter 1.3.4.1
#
DISCID=2a0fd316
DTITLE=The Cramps - File Under Sacred Music
DYEAR=2011
DGENRE=
TTITLE0=Surfin' Bird
TTITLE1=The Way I Walk
TTITLE2=Human Fly
TTITLE3=Domino
TTITLE4=Lonesome Town
TTITLE5=Mystery Plane
TTITLE6=Fever
TTITLE7=Garbageman
TTITLE8=TV Set
TTITLE9=The Mad Daddy
TTITLE10=Drug Train
TTITLE11=Love Me
TTITLE12=I Can't Hardly Stand It
TTITLE13=Twist and Shout
TTITLE14=Uranium Rock
TTITLE15=Goo Goo Muck
TTITLE16=She Said
TTITLE17=The Crusher
TTITLE18=Save It
TTITLE19=New Kind Of Kick
TTITLE20=Rockin' Bones
TTITLE21=Voodoo Idol
EXTD=
EXTT0=
EXTT1=
EXTT2=
EXTT3=
EXTT4=
EXTT5=
EXTT6=
EXTT7=
EXTT8=
EXTT9=
EXTT10=
EXTT11=
EXTT12=
EXTT13=
EXTT14=
EXTT15=
EXTT16=
EXTT17=
EXTT18=
EXTT19=
EXTT20=
EXTT21=
PLAYORDER=
